# xmcd CD database file
#
# Track frame offsets:
#	150
#	42374
#	70498
#	96748
#	121934
#	144633
#	164514
#	184706
#	202968
#	251193
#	313957
#
# Disc length: 4668 seconds
#
# Revision: 1
# Processed by: cddbd v1.5.2PL0 Copyright (c) Steve Scherf et al.
# Submitted via: CDex 1.81
#
DISCID=ae123a0b
DTITLE=Dr. John - Live At Montreux
DYEAR=1995
DGENRE=Blues
TTITLE0=Iko Iko
TTITLE1=Renegade
TTITLE2=Come On (Let The Good Times Roll)
TTITLE3=Tell Me You'll Wait For Me
TTITLE4=Blue Skies
TTITLE5=Gee Baby Ain't I Good To You
TTITLE6=Right Place, Wrong Time
TTITLE7=Makin' Whoopee
TTITLE8=Goin' Back To New Orleans
TTITLE9=The Big Bass Drum (On A Mardi Gras Day)/I Shall Not Be Moved
TTITLE10=Mess Around
EXTD=YEAR: 1995
EXTT0=
EXTT1=
EXTT2=
EXTT3=
EXTT4=
EXTT5=
EXTT6=
EXTT7=
EXTT8=
EXTT9=
EXTT10=
PLAYORDER=
